<svg width="24" height="24" viewBox="0 0 24 24" fill="none" xmlns="http://www.w3.org/2000/svg">
<path fill-rule="evenodd" clip-rule="evenodd" d="M22.668 12.2123C22.7953 12.085 22.8668 11.9124 22.8668 11.7324C22.8668 11.5524 22.7953 11.3798 22.668 11.2525L16.9093 5.49388C16.7821 5.36661 16.6094 5.2951 16.4294 5.2951C16.2494 5.2951 16.0768 5.36661 15.9495 5.49388C15.8223 5.62116 15.7508 5.79378 15.7508 5.97377C15.7508 6.15376 15.8223 6.32638 15.9495 6.45366L20.5498 11.0539L1.073 11.0529C0.89278 11.0529 0.719941 11.1245 0.592506 11.2519C0.465071 11.3794 0.393478 11.5522 0.393478 11.7324C0.393478 11.9127 0.465071 12.0855 0.592506 12.2129C0.719941 12.3404 0.89278 12.412 1.073 12.412L20.5498 12.411L15.9495 17.0112C15.8223 17.1385 15.7508 17.3111 15.7508 17.4911C15.7508 17.6711 15.8223 17.8437 15.9495 17.971C16.0768 18.0983 16.2494 18.1698 16.4294 18.1698C16.6094 18.1698 16.7821 18.0983 16.9093 17.971L22.668 12.2123Z" fill="#103EE0"/>
</svg>
