<svg width="20" height="29" viewBox="0 0 20 29" fill="none" xmlns="http://www.w3.org/2000/svg">
<g clip-path="url(#clip0_520_1835)">
<path d="M6.65723 18.3643H14.424" stroke="#1D3B98" stroke-width="2.21907" stroke-linecap="round"/>
<path d="M6.65723 21.6929H14.424" stroke="#1D3B98" stroke-width="2.21907" stroke-linecap="round"/>
<path d="M1.1095 3.94075C1.1095 5.16632 2.10301 6.15984 3.32857 6.15984H18.8621V1.81226C18.8621 1.76223 18.8216 1.72168 18.7716 1.72168H3.32857C2.10301 1.72168 1.1095 2.7152 1.1095 3.94075Z" stroke="#1D3B98" stroke-width="2.21907"/>
<path d="M12.2049 12.6857L14.424 11.5762V7.26904H9.98584V11.5762L12.2049 12.6857Z" stroke="#1D3B98" stroke-width="2.21907"/>
<path d="M1.1095 3.94043V23.9121C1.1095 25.1376 2.10301 26.1312 3.32857 26.1312H17.7526C18.3654 26.1312 18.8621 25.6345 18.8621 25.0217V3.94043" stroke="#1D3B98" stroke-width="2.21907"/>
</g>
<defs>
<clipPath id="clip0_520_1835">
<rect width="19.9717" height="27.7384" fill="white" transform="translate(0 0.560059)"/>
</clipPath>
</defs>
</svg>
