<svg width="48" height="48" viewBox="0 0 48 48" fill="none" xmlns="http://www.w3.org/2000/svg">
<path d="M23.6821 26.1697H29.6146M18.7384 32.1021H34.5583C35.0828 32.1021 35.5858 31.8938 35.9566 31.523C36.3275 31.1521 36.5358 30.6491 36.5358 30.1247V6.39473C36.5358 5.87027 36.3275 5.36728 35.9566 4.99643C35.5858 4.62558 35.0828 4.41724 34.5583 4.41724H18.7384C18.2139 4.41724 17.7109 4.62558 17.3401 4.99643C16.9692 5.36728 16.7609 5.87027 16.7609 6.39473V30.1247C16.7609 30.6491 16.9692 31.1521 17.3401 31.523C17.7109 31.8938 18.2139 32.1021 18.7384 32.1021Z" stroke="black" stroke-width="2"/>
<path d="M17.9796 31.6815H23.9121H17.9796ZM13.0358 37.614H28.8558C29.3803 37.614 29.8832 37.4056 30.2541 37.0348C30.6249 36.6639 30.8333 36.161 30.8333 35.6365V11.9066C30.8333 11.3821 30.6249 10.8791 30.2541 10.5083C29.8832 10.1374 29.3803 9.92908 28.8558 9.92908H13.0358C12.5114 9.92908 12.0084 10.1374 11.6375 10.5083C11.2667 10.8791 11.0583 11.3821 11.0583 11.9066V35.6365C11.0583 36.161 11.2667 36.6639 11.6375 37.0348C12.0084 37.4056 12.5114 37.614 13.0358 37.614Z" fill="#F3C89F"/>
<path d="M17.9796 31.6815H23.9121M13.0358 37.614H28.8558C29.3803 37.614 29.8832 37.4056 30.2541 37.0348C30.6249 36.6639 30.8333 36.161 30.8333 35.6365V11.9066C30.8333 11.3821 30.6249 10.8791 30.2541 10.5083C29.8832 10.1374 29.3803 9.92908 28.8558 9.92908H13.0358C12.5114 9.92908 12.0084 10.1374 11.6375 10.5083C11.2667 10.8791 11.0583 11.3821 11.0583 11.9066V35.6365C11.0583 36.161 11.2667 36.6639 11.6375 37.0348C12.0084 37.4056 12.5114 37.614 13.0358 37.614Z" stroke="black" stroke-width="2"/>
</svg>
