<svg width="41" height="40" viewBox="0 0 41 40" fill="none" xmlns="http://www.w3.org/2000/svg">
<path d="M20.3333 3.75C17.0579 3.75 13.9166 5.05116 11.6006 7.36723C9.28449 9.68331 7.98334 12.8246 7.98334 16.1V17C8.48334 23.7667 14.1 29.2083 20.3333 36.25C26.8417 28.9 32.6833 23.3333 32.6833 16.1C32.6833 12.8246 31.3822 9.68331 29.0661 7.36723C26.75 5.05116 23.6088 3.75 20.3333 3.75ZM20.3333 10.1667C21.5088 10.1667 22.6579 10.5154 23.6352 11.1686C24.6125 11.8218 25.3741 12.7503 25.8235 13.8365C26.273 14.9227 26.3902 16.1178 26.1602 17.2706C25.9303 18.4234 25.3636 19.482 24.5318 20.3127C23.7 21.1433 22.6405 21.7085 21.4874 21.9368C20.3343 22.1652 19.1393 22.0463 18.0538 21.5953C16.9682 21.1443 16.0408 20.3815 15.389 19.4033C14.7371 18.4251 14.39 17.2755 14.3917 16.1C14.3939 14.5256 15.0208 13.0165 16.1349 11.904C17.2489 10.7915 18.759 10.1667 20.3333 10.1667Z" stroke="#343434" stroke-width="3" stroke-linecap="round" stroke-linejoin="round"/>
</svg>
