<svg width="23" height="24" viewBox="0 0 23 24" fill="none" xmlns="http://www.w3.org/2000/svg">
<path d="M12.4379 2.41605L14.2944 7.43319C14.5982 8.25435 15.2456 8.90178 16.0668 9.20564L21.084 11.0621C21.9546 11.3843 21.9546 12.6157 21.084 12.9379L16.0668 14.7944C15.2457 15.0982 14.5982 15.7456 14.2944 16.5668L12.4379 21.584C12.1157 22.4546 10.8843 22.4546 10.5621 21.584L8.70564 16.5668C8.40178 15.7457 7.75435 15.0982 6.93319 14.7944L1.91605 12.9379C1.04543 12.6157 1.04543 11.3843 1.91605 11.0621L6.93319 9.20564C7.75435 8.90178 8.40178 8.25435 8.70564 7.43319L10.5621 2.41605C10.8843 1.54543 12.1157 1.54543 12.4379 2.41605Z" fill="#EDB230" stroke="black" stroke-width="2"/>
</svg>
