<svg width="40" height="40" viewBox="0 0 40 40" fill="none" xmlns="http://www.w3.org/2000/svg">
<path d="M7.50125 9.375C7.50125 7.88316 8.09388 6.45242 9.14877 5.39752C10.2037 4.34263 11.6344 3.75 13.1262 3.75H31.8762C33.3681 3.75 34.7988 4.34263 35.8537 5.39752C36.9086 6.45242 37.5012 7.88316 37.5012 9.375V21.875C37.5012 23.3668 36.9086 24.7976 35.8537 25.8525C34.7988 26.9074 33.3681 27.5 31.8762 27.5H23.99C23.24 25.855 21.645 24.7875 20 24.4725V22.5C20 21.5054 20.3951 20.5516 21.0983 19.8483C21.8016 19.1451 22.7554 18.75 23.75 18.75H30C30.9946 18.75 31.9484 19.1451 32.6516 19.8483C33.3549 20.5516 33.75 21.5054 33.75 22.5V24.375C34.1386 24.0843 34.4541 23.707 34.6713 23.273C34.8885 22.839 35.0015 22.3603 35.0012 21.875V9.375C35.0012 8.5462 34.672 7.75134 34.086 7.16529C33.4999 6.57924 32.705 6.25 31.8762 6.25H13.1262C12.2974 6.25 11.5026 6.57924 10.9165 7.16529C10.3305 7.75134 10.0012 8.5462 10.0012 9.375V9.7675C9.09649 10.0599 8.25025 10.5093 7.50125 11.095V9.375ZM30 21.25H23.75C23.4185 21.25 23.1005 21.3817 22.8661 21.6161C22.6317 21.8505 22.5 22.1685 22.5 22.5V25H31.25V22.5C31.25 22.1685 31.1183 21.8505 30.8839 21.6161C30.6495 21.3817 30.3315 21.25 30 21.25ZM21.7687 27.5C22.0485 27.8185 22.2619 28.1896 22.3965 28.5917C22.5311 28.9937 22.5841 29.4185 22.5525 29.8412C22.3837 32.4337 21.405 34.4412 19.5487 35.7513C17.7575 37.015 15.3275 37.5 12.5 37.5C9.69 37.5 7.305 37.02 5.5425 35.7675C3.72 34.4713 2.7575 32.4938 2.52125 29.955C2.3175 27.7725 4.1875 26.25 6.09 26.25H18.9887C19.514 26.2508 20.0332 26.3625 20.5123 26.578C20.9914 26.7934 21.4196 27.1076 21.7687 27.5ZM6.09 28.75C5.36 28.75 4.97 29.2875 5.01 29.725C5.1975 31.7288 5.90125 32.955 6.99 33.73C8.13875 34.5462 9.90875 35 12.5 35C15.1075 35 16.9287 34.54 18.1075 33.7087C19.22 32.9237 19.9262 31.6875 20.0575 29.68C20.085 29.2638 19.7037 28.75 18.9887 28.75H6.08875H6.09ZM31.25 13.125C31.25 14.2853 30.7891 15.3981 29.9686 16.2186C29.1481 17.0391 28.0353 17.5 26.875 17.5C25.7147 17.5 24.6019 17.0391 23.7814 16.2186C22.9609 15.3981 22.5 14.2853 22.5 13.125C22.5 11.9647 22.9609 10.8519 23.7814 10.0314C24.6019 9.21094 25.7147 8.75 26.875 8.75C28.0353 8.75 29.1481 9.21094 29.9686 10.0314C30.7891 10.8519 31.25 11.9647 31.25 13.125ZM28.75 13.125C28.75 12.6277 28.5525 12.1508 28.2008 11.7992C27.8492 11.4475 27.3723 11.25 26.875 11.25C26.3777 11.25 25.9008 11.4475 25.5492 11.7992C25.1975 12.1508 25 12.6277 25 13.125C25 13.6223 25.1975 14.0992 25.5492 14.4508C25.9008 14.8025 26.3777 15 26.875 15C27.3723 15 27.8492 14.8025 28.2008 14.4508C28.5525 14.0992 28.75 13.6223 28.75 13.125ZM18.75 17.5C18.75 19.1576 18.0915 20.7473 16.9194 21.9194C15.7473 23.0915 14.1576 23.75 12.5 23.75C10.8424 23.75 9.25268 23.0915 8.08058 21.9194C6.90848 20.7473 6.25 19.1576 6.25 17.5C6.25 15.8424 6.90848 14.2527 8.08058 13.0806C9.25268 11.9085 10.8424 11.25 12.5 11.25C14.1576 11.25 15.7473 11.9085 16.9194 13.0806C18.0915 14.2527 18.75 15.8424 18.75 17.5ZM16.25 17.5C16.25 16.5054 15.8549 15.5516 15.1516 14.8483C14.4484 14.1451 13.4946 13.75 12.5 13.75C11.5054 13.75 10.5516 14.1451 9.84835 14.8483C9.14508 15.5516 8.75 16.5054 8.75 17.5C8.75 18.4946 9.14508 19.4484 9.84835 20.1517C10.5516 20.8549 11.5054 21.25 12.5 21.25C13.4946 21.25 14.4484 20.8549 15.1516 20.1517C15.8549 19.4484 16.25 18.4946 16.25 17.5Z" fill="black"/>
</svg>
