<svg width="41" height="40" viewBox="0 0 41 40" fill="none" xmlns="http://www.w3.org/2000/svg">
<path d="M34.4167 6.5625H6.91669C6.33653 6.5625 5.78013 6.79297 5.36989 7.2032C4.95966 7.61344 4.72919 8.16984 4.72919 8.75V31.25C4.72919 31.8302 4.95966 32.3866 5.36989 32.7968C5.78013 33.207 6.33653 33.4375 6.91669 33.4375H9.00887C9.18628 33.4374 9.36003 33.3871 9.50994 33.2922C9.65985 33.1973 9.77976 33.0619 9.85575 32.9016C10.4888 31.5646 11.4885 30.4348 12.7385 29.6436C13.9885 28.8525 15.4374 28.4325 16.9167 28.4325C18.396 28.4325 19.8449 28.8525 21.0949 29.6436C22.3449 30.4348 23.3445 31.5646 23.9776 32.9016C24.0536 33.0619 24.1735 33.1973 24.3234 33.2922C24.4733 33.3871 24.6471 33.4374 24.8245 33.4375H34.4167C34.9968 33.4375 35.5532 33.207 35.9635 32.7968C36.3737 32.3866 36.6042 31.8302 36.6042 31.25V8.75C36.6042 8.16984 36.3737 7.61344 35.9635 7.2032C35.5532 6.79297 34.9968 6.5625 34.4167 6.5625ZM12.8542 22.5C12.8542 21.6965 13.0924 20.9111 13.5388 20.243C13.9852 19.5749 14.6197 19.0542 15.362 18.7467C16.1044 18.4393 16.9212 18.3588 17.7092 18.5156C18.4973 18.6723 19.2212 19.0592 19.7893 19.6274C20.3575 20.1955 20.7444 20.9194 20.9011 21.7074C21.0579 22.4955 20.9774 23.3123 20.6699 24.0547C20.3625 24.797 19.8418 25.4315 19.1737 25.8778C18.5056 26.3242 17.7202 26.5625 16.9167 26.5625C15.8392 26.5625 14.8059 26.1345 14.0441 25.3726C13.2822 24.6108 12.8542 23.5774 12.8542 22.5ZM34.7292 31.25C34.7292 31.3329 34.6963 31.4124 34.6377 31.471C34.5791 31.5296 34.4996 31.5625 34.4167 31.5625H25.3964C24.3032 29.6004 22.5656 28.0763 20.4776 27.2484C21.4749 26.501 22.2118 25.4586 22.5837 24.269C22.9556 23.0795 22.9437 21.803 22.5498 20.6206C22.1559 19.4381 21.3998 18.4096 20.3888 17.6808C19.3778 16.952 18.163 16.5598 16.9167 16.5598C15.6703 16.5598 14.4556 16.952 13.4446 17.6808C12.4335 18.4096 11.6775 19.4381 11.2836 20.6206C10.8896 21.803 10.8778 23.0795 11.2497 24.269C11.6216 25.4586 12.3584 26.501 13.3557 27.2484C11.2678 28.0763 9.53016 29.6004 8.437 31.5625H6.91669C6.83381 31.5625 6.75432 31.5296 6.69572 31.471C6.63711 31.4124 6.60419 31.3329 6.60419 31.25V8.75C6.60419 8.66712 6.63711 8.58763 6.69572 8.52903C6.75432 8.47042 6.83381 8.4375 6.91669 8.4375H34.4167C34.4996 8.4375 34.5791 8.47042 34.6377 8.52903C34.6963 8.58763 34.7292 8.66712 34.7292 8.75V31.25ZM31.6042 12.5V27.5C31.6042 27.7486 31.5054 27.9871 31.3296 28.1629C31.1538 28.3387 30.9153 28.4375 30.6667 28.4375H28.1667C27.918 28.4375 27.6796 28.3387 27.5038 28.1629C27.328 27.9871 27.2292 27.7486 27.2292 27.5C27.2292 27.2514 27.328 27.0129 27.5038 26.8371C27.6796 26.6613 27.918 26.5625 28.1667 26.5625H29.7292V13.4375H11.6042V15C11.6042 15.2486 11.5054 15.4871 11.3296 15.6629C11.1538 15.8387 10.9153 15.9375 10.6667 15.9375C10.418 15.9375 10.1796 15.8387 10.0038 15.6629C9.82796 15.4871 9.72919 15.2486 9.72919 15V12.5C9.72919 12.2514 9.82796 12.0129 10.0038 11.8371C10.1796 11.6613 10.418 11.5625 10.6667 11.5625H30.6667C30.9153 11.5625 31.1538 11.6613 31.3296 11.8371C31.5054 12.0129 31.6042 12.2514 31.6042 12.5Z" fill="black"/>
</svg>
