<svg width="48" height="48" viewBox="0 0 48 48" fill="none" xmlns="http://www.w3.org/2000/svg">
<g clip-path="url(#clip0_476_2522)">
<path d="M22.4534 22.4242C20.9259 22.1833 20.1073 21.1434 20.5146 17.9298L20.5597 17.542C20.9024 14.7494 21.1883 14.1287 22.5102 14.2011C22.8979 14.2266 23.3444 14.4753 23.7909 14.8474C24.2041 15.3311 25.1226 15.9597 25.6416 17.2052C26.0136 18.1178 26.139 18.7131 26.1918 19.3554L26.2741 20.1427V20.1388C26.3269 20.4501 26.4886 20.7325 26.7304 20.9356C26.9721 21.1388 27.2782 21.2494 27.594 21.2477C27.9097 21.2461 28.2146 21.1323 28.4542 20.9267C28.6939 20.721 28.8526 20.4369 28.9022 20.1251C28.9178 20.0389 29.2468 11.5769 29.2468 11.4379C29.2468 10.6937 28.6554 10.0867 27.9152 10.0749C27.739 10.0757 27.5647 10.1111 27.4023 10.1793C27.2398 10.2474 27.0924 10.3468 26.9683 10.472C26.8443 10.5971 26.7462 10.7454 26.6795 10.9084C26.6128 11.0715 26.5788 11.2461 26.5796 11.4222C26.5796 11.4399 26.5776 12.607 26.5522 13.784C25.5025 12.6247 24.1571 11.5848 22.6473 11.4927C18.617 11.2773 18.1764 15.0393 17.9101 17.2072L17.8709 17.591C17.3265 21.8778 18.7345 24.5803 22.0421 25.1051C25.6416 25.6789 28.0405 26.5151 28.0621 28.7633C28.0758 29.6367 27.6234 30.5317 26.8342 31.219C26.3698 31.6236 25.8227 31.922 25.2312 32.0935C24.6396 32.2649 24.0178 32.3054 23.4091 32.2119C23.0499 32.1504 22.6968 32.058 22.3535 31.9358C21.8835 31.6694 20.6948 30.937 20.0936 30.091C19.5844 29.3782 19.4082 28.2561 19.3533 27.5452C19.3612 27.226 19.3631 27.0164 19.3631 26.991C19.37 26.6352 19.2363 26.2911 18.991 26.0334C18.7457 25.7756 18.4087 25.625 18.053 25.6143C17.8758 25.6125 17.7 25.6456 17.5356 25.7117C17.3712 25.7779 17.2215 25.8757 17.0949 25.9998C16.9683 26.1238 16.8674 26.2715 16.7979 26.4345C16.7285 26.5976 16.6918 26.7727 16.69 26.9499C16.69 26.9753 16.6567 29.6269 16.5608 31.2249C16.4237 33.7962 16.5608 35.9758 16.5608 36.0698C16.6156 36.8179 17.2462 37.3819 17.9845 37.331C18.1608 37.3196 18.3331 37.2733 18.4914 37.1947C18.6497 37.1161 18.7908 37.0069 18.9065 36.8734C19.0222 36.7398 19.1102 36.5846 19.1654 36.4167C19.2206 36.2488 19.2419 36.0717 19.228 35.8955C19.228 35.8838 19.1634 34.8282 19.1712 33.3693C20.3213 34.1246 21.6123 34.6395 22.9665 34.8831C23.9595 35.0489 24.977 34.9908 25.9447 34.7129C26.9123 34.4351 27.8057 33.9446 28.5595 33.2772C29.9558 32.065 30.7567 30.4102 30.7332 28.7339C30.6862 23.7304 25.1226 22.8511 22.4534 22.4242ZM27.8741 0.271484C26.0032 0.273015 24.1649 0.760934 22.5396 1.68736H22.3202C17.1561 1.68736 12.6519 4.41336 10.2765 8.98803C8.85081 11.716 8.51397 14.3734 8.3201 15.9969C8.2966 16.1712 8.28485 16.3298 8.26526 16.51C8.03026 18.4174 8.02439 20.2387 8.24568 21.9385C7.46897 23.4758 7.05052 25.169 7.02172 26.8911V26.9224C7.00559 28.1959 6.96838 29.469 6.9101 30.7412C6.80989 32.6589 6.80467 34.5804 6.89443 36.4987L6.91989 36.908C7.35856 42.7203 12.178 47.2715 17.9042 47.2715C20.3689 47.2784 22.7618 46.4423 24.6859 44.9019C28.4444 44.7536 32.0371 43.3151 34.8594 40.8286C38.4353 37.7207 40.4583 33.2988 40.4015 28.7065C40.3761 26.0392 39.7239 23.5404 38.4863 21.3373C38.7154 18.8443 38.9191 11.5534 38.9191 11.4869C38.9191 5.41015 34.0546 0.383109 28.0718 0.271484L27.8741 0.271484ZM27.9837 5.51003C31.1993 5.56878 33.8156 8.27519 33.8156 11.5437C33.8156 11.6181 33.5317 20.3503 33.3946 21.1062C33.3141 21.5703 33.1807 22.0237 32.9971 22.4574C34.4776 24.2004 35.2785 26.3741 35.2981 28.8338C35.3392 31.879 33.9645 34.8576 31.5263 36.9804C29.4716 38.7957 26.8264 39.8009 24.0847 39.8083C23.6145 39.8052 23.145 39.7738 22.6786 39.7143C22.5721 39.8591 22.4597 39.9996 22.3418 40.1353C21.794 40.7749 21.1138 41.2879 20.3483 41.6389C19.5828 41.9899 18.7502 42.1704 17.9081 42.1681C14.8276 42.1681 12.2348 39.7104 12.0076 36.5751L11.992 36.3362C11.9107 34.5993 11.9139 32.8596 12.0018 31.1231C12.0781 29.7934 12.1193 27.5374 12.1232 27.0497C12.1438 25.587 12.6878 24.1802 13.6566 23.0841C13.1924 21.4489 13.0456 19.4886 13.3295 17.1699L13.3765 16.7548C13.5391 15.3937 13.7838 13.3864 14.7865 11.4673C16.2846 8.58265 19.0322 6.92786 22.3222 6.92786C22.8631 6.92467 23.4032 6.97055 23.9358 7.06494C25.0051 6.08578 26.4229 5.47869 27.9837 5.51003Z" fill="black"/>
<path d="M22.4535 22.4242C20.926 22.1833 20.1074 21.1434 20.5148 17.9298L20.5598 17.542C20.9025 14.7494 21.1884 14.1287 22.5103 14.2011C22.8981 14.2266 23.3446 14.4753 23.7911 14.8474C24.2043 15.3311 25.1227 15.9597 25.6417 17.2052C26.0138 18.1178 26.1391 18.7131 26.192 19.3554L26.2742 20.1427V20.1388C26.327 20.4501 26.4887 20.7325 26.7305 20.9356C26.9722 21.1388 27.2783 21.2494 27.5941 21.2477C27.9098 21.2461 28.2147 21.1323 28.4544 20.9267C28.694 20.721 28.8528 20.4369 28.9023 20.1251C28.918 20.0389 29.247 11.5769 29.247 11.4379C29.247 10.6937 28.6556 10.0867 27.9153 10.0749C27.7391 10.0757 27.5649 10.1111 27.4024 10.1793C27.2399 10.2474 27.0925 10.3468 26.9685 10.472C26.8444 10.5971 26.7463 10.7454 26.6796 10.9084C26.6129 11.0715 26.5789 11.2461 26.5797 11.4222C26.5797 11.4399 26.5778 12.607 26.5523 13.784C25.5026 12.6247 24.1573 11.5848 22.6474 11.4927C18.6171 11.2773 18.1765 15.0393 17.9102 17.2072L17.871 17.591C17.3266 21.8778 18.7346 24.5803 22.0423 25.1051C25.6417 25.6789 28.0406 26.5151 28.0622 28.7633C28.0759 29.6367 27.6235 30.5317 26.8343 31.219C26.3699 31.6236 25.8229 31.922 25.2313 32.0935C24.6398 32.2649 24.0179 32.3054 23.4092 32.2119C23.05 32.1504 22.6969 32.058 22.3536 31.9358C21.8836 31.6694 20.6949 30.937 20.0937 30.091C19.5846 29.3782 19.4083 28.2561 19.3535 27.5452C19.3613 27.226 19.3633 27.0164 19.3633 26.991C19.3701 26.6352 19.2364 26.2911 18.9911 26.0334C18.7458 25.7756 18.4088 25.625 18.0531 25.6143C17.8759 25.6125 17.7001 25.6456 17.5357 25.7117C17.3713 25.7779 17.2216 25.8757 17.095 25.9998C16.9684 26.1238 16.8675 26.2715 16.7981 26.4345C16.7286 26.5976 16.6919 26.7727 16.6901 26.9499C16.6901 26.9753 16.6568 29.6269 16.5609 31.2249C16.4238 33.7962 16.5609 35.9758 16.5609 36.0698C16.6157 36.8179 17.2463 37.3819 17.9846 37.331C18.1609 37.3196 18.3332 37.2733 18.4915 37.1947C18.6498 37.1161 18.7909 37.0069 18.9066 36.8734C19.0223 36.7398 19.1103 36.5846 19.1655 36.4167C19.2207 36.2488 19.242 36.0717 19.2281 35.8955C19.2281 35.8838 19.1635 34.8282 19.1713 33.3693C20.3214 34.1246 21.6124 34.6395 22.9666 34.8831C23.9596 35.0489 24.9771 34.9908 25.9448 34.7129C26.9124 34.4351 27.8058 33.9446 28.5596 33.2772C29.9559 32.065 30.7568 30.4102 30.7333 28.7339C30.6863 23.7304 25.1227 22.8511 22.4535 22.4242ZM27.8742 0.271484C26.0033 0.273015 24.165 0.760934 22.5397 1.68736H22.3203C17.1562 1.68736 12.6521 4.41336 10.2766 8.98803C8.85093 11.716 8.51409 14.3734 8.32022 15.9969C8.29672 16.1712 8.28497 16.3298 8.26539 16.51C8.03039 18.4174 8.02451 20.2387 8.2458 21.9385C7.46909 23.4758 7.05064 25.169 7.02184 26.8911V26.9224C7.00571 28.1959 6.9685 29.469 6.91022 30.7412C6.81002 32.6589 6.80479 34.5804 6.89455 36.4987L6.92001 36.908C7.35868 42.7203 12.1781 47.2715 17.9043 47.2715C20.369 47.2784 22.762 46.4423 24.686 44.9019C28.4445 44.7536 32.0372 43.3151 34.8596 40.8286C38.4355 37.7207 40.4584 33.2988 40.4016 28.7065C40.3762 26.0392 39.7241 23.5404 38.4864 21.3373C38.7155 18.8443 38.9192 11.5534 38.9192 11.4869C38.9192 5.41015 34.0547 0.383109 28.072 0.271484L27.8742 0.271484ZM27.9838 5.51003C31.1994 5.56878 33.8158 8.27519 33.8158 11.5437C33.8158 11.6181 33.5318 20.3503 33.3947 21.1062C33.3142 21.5703 33.1808 22.0237 32.9972 22.4574C34.4777 24.2004 35.2786 26.3741 35.2982 28.8338C35.3393 31.879 33.9646 34.8576 31.5265 36.9804C29.4717 38.7957 26.8265 39.8009 24.0848 39.8083C23.6146 39.8052 23.1451 39.7738 22.6787 39.7143C22.5722 39.8591 22.4598 39.9996 22.3419 40.1353C21.7941 40.7749 21.1139 41.2879 20.3484 41.6389C19.5829 41.9899 18.7503 42.1704 17.9082 42.1681C14.8278 42.1681 12.2349 39.7104 12.0078 36.5751L11.9921 36.3362C11.9108 34.5993 11.9141 32.8596 12.0019 31.1231C12.0783 29.7934 12.1194 27.5374 12.1233 27.0497C12.1439 25.587 12.6879 24.1802 13.6567 23.0841C13.1926 21.4489 13.0457 19.4886 13.3296 17.1699L13.3766 16.7548C13.5392 15.3937 13.784 13.3864 14.7866 11.4673C16.2848 8.58265 19.0323 6.92786 22.3223 6.92786C22.8632 6.92467 23.4033 6.97055 23.936 7.06494C25.0052 6.08578 26.4231 5.47869 27.9838 5.51003Z" fill="black"/>
</g>
<defs>
<clipPath id="clip0_476_2522">
<rect width="47" height="47" fill="white" transform="translate(0.116699 0.271484)"/>
</clipPath>
</defs>
</svg>
