<svg width="47" height="48" viewBox="0 0 47 48" fill="none" xmlns="http://www.w3.org/2000/svg">
<path d="M39.6563 7.98242H13.2188C12.5371 7.98242 11.8833 8.25322 11.4013 8.73525C10.9193 9.21728 10.6485 9.87105 10.6485 10.5527V13.8574H7.34377C6.66208 13.8574 6.00831 14.1282 5.52628 14.6102C5.04425 15.0923 4.77345 15.746 4.77345 16.4277V36.9902C4.77345 37.6719 5.04425 38.3257 5.52628 38.8077C6.00831 39.2897 6.66208 39.5605 7.34377 39.5605H33.7813C34.463 39.5605 35.1167 39.2897 35.5987 38.8077C36.0808 38.3257 36.3516 37.6719 36.3516 36.9902V33.6855H39.6563C40.338 33.6855 40.9917 33.4147 41.4738 32.9327C41.9558 32.4507 42.2266 31.7969 42.2266 31.1152V10.5527C42.2266 9.87105 41.9558 9.21728 41.4738 8.73525C40.9917 8.25322 40.338 7.98242 39.6563 7.98242ZM7.34377 16.0605H33.7813C33.8786 16.0605 33.972 16.0992 34.0409 16.1681C34.1098 16.237 34.1485 16.3303 34.1485 16.4277V19.7324H6.97658V16.4277C6.97658 16.3303 7.01526 16.237 7.08412 16.1681C7.15299 16.0992 7.24638 16.0605 7.34377 16.0605ZM34.1485 36.9902C34.1485 37.0876 34.1098 37.181 34.0409 37.2499C33.972 37.3187 33.8786 37.3574 33.7813 37.3574H7.34377C7.24638 37.3574 7.15299 37.3187 7.08412 37.2499C7.01526 37.181 6.97658 37.0876 6.97658 36.9902V21.9355H34.1485V36.9902ZM40.0235 31.1152C40.0235 31.2126 39.9848 31.306 39.9159 31.3749C39.847 31.4437 39.7537 31.4824 39.6563 31.4824H36.3516V16.4277C36.3516 15.746 36.0808 15.0923 35.5987 14.6102C35.1167 14.1282 34.463 13.8574 33.7813 13.8574H12.8516V10.5527C12.8516 10.4554 12.8903 10.362 12.9591 10.2931C13.028 10.2242 13.1214 10.1855 13.2188 10.1855H39.6563C39.7537 10.1855 39.847 10.2242 39.9159 10.2931C39.9848 10.362 40.0235 10.4554 40.0235 10.5527V31.1152Z" fill="black"/>
</svg>
